<svg xmlns="http://www.w3.org/2000/svg" viewBox="0 0 438.86 51.72"><defs><style>.cls-1{fill:#fff;}</style></defs><title>Asset 1</title><g id="Layer_2" data-name="Layer 2"><g id="Layer_1-2" data-name="Layer 1"><g id="Capa_2" data-name="Capa 2"><g id="iconos_Nuevos" data-name="iconos Nuevos"><g id="Capa_1-2" data-name="Capa 1-2"><path class="cls-1" d="M396.09,50.42c-2.34,3.29-7.37-.32-5-3.61l32.22-45.5c2.34-3.29,7.38.32,5,3.61ZM3,6.23C-1,6.23-1,0,3,0H46.22c4.05,0,4.05,6.23,0,6.23ZM3,29c-4,0-4-6.26,0-6.26H46.22c4.05,0,4.05,6.23,0,6.23ZM3,51.72c-4,0-4-6.22,0-6.22H46.22c4.05,0,4.05,6.22,0,6.22Zm77.58-3.1c0,4.07-6.2,4.07-6.2,0V3.12c0-4.07,6.2-4.07,6.2,0Zm51.84,0c0,4.07-6.19,4.07-6.19,0V3.12c0-4.07,6.19-4.07,6.19,0Zm-10.23-1.8c2.34,3.29-2.7,6.89-5,3.61L85,4.92C82.64,1.63,87.67-2,90,1.31ZM159.94,6.17c-4.08,0-4.08-6.13,0-6.13h45.5c4.07,0,4.07,6.13,0,6.13Zm0,45.5c-4.08,0-4.08-6.13,0-6.13h45.5a3.07,3.07,0,1,1,0,6.13Zm1.66-8.91c-3.43,2.15-6.76-3.09-3.33-5.24l45.5-28.28c3.43-2.15,6.76,3.09,3.33,5.24Zm101.45,8.83c-4.05.33-4.56-5.83-.5-6.16A23.45,23.45,0,0,0,277.06,39a18.29,18.29,0,0,0,5.68-13.1,18.29,18.29,0,0,0-5.68-13.1,23.43,23.43,0,0,0-14.51-6.5C258.5,6,259-.2,263.05.13a29.63,29.63,0,0,1,18.33,8.24,24.4,24.4,0,0,1,7.54,17.49,24.48,24.48,0,0,1-7.54,17.51A29.63,29.63,0,0,1,263.05,51.59ZM253.07.13c4.05-.33,4.56,5.84.5,6.17a23.46,23.46,0,0,0-14.52,6.46,18.38,18.38,0,0,0-5.68,13.1A18.38,18.38,0,0,0,239.05,39a23.51,23.51,0,0,0,14.52,6.48c4.05.33,3.55,6.49-.5,6.16a29.66,29.66,0,0,1-18.35-8.22,24.48,24.48,0,0,1-7.54-17.51,24.4,24.4,0,0,1,7.54-17.49A29.64,29.64,0,0,1,253.07.13Zm63.59,48.49c0,4.07-6.2,4.07-6.2,0V3.12c0-4.07,6.2-4.07,6.2,0Zm51.84,0c0,4.07-6.19,4.07-6.19,0V3.12c0-4.07,6.19-4.07,6.19,0Zm-10.23-1.8c2.34,3.29-2.7,6.89-5,3.61L321,4.92c-2.32-3.29,2.71-6.89,5-3.61Zm80.59,1.8c0,4.07-6.19,4.07-6.19,0V3.12c0-4.07,6.19-4.07,6.19,0Z"/></g></g></g></g></g></svg>